<svg id="Couchbase_Logomark" data-name="Couchbase Logomark" xmlns="http://www.w3.org/2000/svg" viewBox="0 0 32 32"><circle cx="16" cy="16" r="16" style="fill:#ea2328"/><path id="Couch" d="M9.71,10.38a22.93,22.93,0,0,0-2.87.19,2.06,2.06,0,0,0-1.64,2V18.8a1.93,1.93,0,0,0,1.64,2,76,76,0,0,0,9.17.52,67,67,0,0,0,9.17-.52,1.94,1.94,0,0,0,1.65-2V12.56a2.08,2.08,0,0,0-1.65-2,22.93,22.93,0,0,0-2.87-.19.71.71,0,0,0-.7.72v4.39c-1.93,0-3.62-.09-5.6-.09s-3.67.09-5.59.09V11.14a.71.71,0,0,0-.66-.76Z" style="fill:#fff"/></svg>
